<?xml version="1.0" encoding="utf-8"?>
<!-- Generator: Adobe Illustrator 16.0.0, SVG Export Plug-In . SVG Version: 6.00 Build 0)  -->
<!DOCTYPE svg PUBLIC "-//W3C//DTD SVG 1.1//EN" "http://www.w3.org/Graphics/SVG/1.1/DTD/svg11.dtd">
<svg version="1.1" id="Layer_1" xmlns="http://www.w3.org/2000/svg" xmlns:xlink="http://www.w3.org/1999/xlink" x="0px" y="0px"
	 width="75px" height="75px" viewBox="0 0 75 75" enable-background="new 0 0 75 75" xml:space="preserve">
<path fill="none" stroke="#000000" stroke-width="0.1" stroke-linecap="round" stroke-linejoin="round" stroke-miterlimit="10" d="
	M64.607,42.108L64.607,42.108l0.183-0.34c2.943-0.314,5.806-1.289,8.398-2.885l-0.252-4.781c-2.744-1.316-5.692-1.986-8.652-1.991
	c-0.595-1.534-1.168-3.3-1.589-4.891c2.39-1.744,4.382-4.02,5.83-6.697l-2.608-4.016c-3.035,0.233-5.924,1.127-8.489,2.603
	c-1.281-1.032-2.662-2.276-3.821-3.442c1.198-2.705,1.785-5.671,1.7-8.714l-4.266-2.174c-2.512,1.719-4.567,3.938-6.051,6.498
	c-1.626-0.252-3.443-0.639-5.031-1.069c-0.313-2.943-1.289-5.805-2.884-8.398l-4.782,0.251c-1.315,2.745-1.985,5.693-1.99,8.653
	c-1.535,0.595-3.301,1.168-4.892,1.589c-1.743-2.392-4.019-4.383-6.696-5.83l-4.016,2.608c0.233,3.035,1.127,5.924,2.602,8.489
	c-1.031,1.282-2.274,2.663-3.441,3.822c-2.706-1.199-5.672-1.786-8.715-1.701l-2.173,4.266c1.719,2.513,3.937,4.567,6.498,6.051
	c-0.253,1.626-0.639,3.442-1.069,5.031c-2.943,0.314-5.805,1.289-8.398,2.884l0.251,4.782c2.746,1.315,5.694,1.985,8.653,1.99
	c0.594,1.534,1.168,3.301,1.589,4.892c-2.392,1.743-4.383,4.019-5.83,6.696l2.608,4.016c3.035-0.233,5.924-1.127,8.489-2.602
	c1.281,1.031,2.662,2.274,3.822,3.44c-1.2,2.706-1.787,5.673-1.701,8.716l4.266,2.173c2.512-1.72,4.567-3.938,6.051-6.498
	c1.625,0.253,3.441,0.639,5.03,1.068c0.314,2.943,1.29,5.806,2.885,8.398l4.781-0.251c1.315-2.745,1.986-5.693,1.99-8.653
	c1.535-0.594,3.302-1.167,4.892-1.589c1.743,2.392,4.019,4.383,6.696,5.83l4.017-2.608c-0.232-3.035-1.127-5.923-2.604-8.488
	c1.031-1.282,2.275-2.662,3.442-3.822c2.705,1.2,5.671,1.787,8.714,1.701l2.174-4.267c-1.72-2.512-3.938-4.566-6.498-6.051
	C64.014,45.296,64.326,43.643,64.607,42.108z"/>
<path fill="none" stroke="#000000" stroke-width="0.1" stroke-linecap="round" stroke-linejoin="round" stroke-miterlimit="10" d="
	M51.404,42.742L51.404,42.742l2.834-0.148l1.85,2.46c-3.258,8.976-11.822,14.537-21.347,13.862l-1.494-2.69l1.288-2.528
	C40.799,51.362,46.724,47.515,51.404,42.742z"/>
<path fill="none" stroke="#000000" stroke-width="0.1" stroke-linecap="round" stroke-linejoin="round" stroke-miterlimit="10" d="
	M25.435,49.06L25.435,49.06l-1.289,2.529l-3.055,0.372c-6.145-7.309-6.679-17.507-1.332-25.418l3.077,0.051l1.546,2.38
	C23.271,35.565,23.641,42.62,25.435,49.06z"/>
<path fill="none" stroke="#000000" stroke-width="0.1" stroke-linecap="round" stroke-linejoin="round" stroke-miterlimit="10" d="
	M32.948,23.411L32.948,23.411l-1.546-2.38l1.206-2.832c9.402-1.667,18.5,2.969,22.678,11.555l-1.583,2.64l-2.834,0.149
	C45.716,28.286,39.422,25.078,32.948,23.411z"/>
<circle fill="none" stroke="#000000" stroke-width="0.1" stroke-linecap="round" stroke-linejoin="round" stroke-miterlimit="10" cx="36.595" cy="38.404" r="5.67"/>
</svg>
