<?xml version="1.0" encoding="utf-8"?>
<!-- Generator: Adobe Illustrator 16.0.0, SVG Export Plug-In . SVG Version: 6.00 Build 0)  -->
<!DOCTYPE svg PUBLIC "-//W3C//DTD SVG 1.1//EN" "http://www.w3.org/Graphics/SVG/1.1/DTD/svg11.dtd">
<svg version="1.1" id="Layer_1" xmlns="http://www.w3.org/2000/svg" xmlns:xlink="http://www.w3.org/1999/xlink" x="0px" y="0px"
	 width="96px" height="96px" viewBox="0 0 96 96" enable-background="new 0 0 96 96" xml:space="preserve">
<path fill="none" stroke="#000000" stroke-width="0.1" stroke-linecap="round" stroke-linejoin="round" stroke-miterlimit="10" d="
	M86.336,52.415L86.336,52.415l0.243-0.363c2.913-0.408,5.725-1.394,8.283-2.911l-0.192-4.866c-2.67-1.312-5.55-2.074-8.485-2.253
	c-0.683-1.534-1.164-3.54-1.252-5.216c2.534-1.492,4.755-3.478,6.538-5.859l-2.039-4.423c-2.969-0.19-5.921,0.208-8.701,1.166
	c-1.218-1.154-2.431-2.824-3.152-4.339c1.77-2.348,3.061-5.034,3.797-7.916l-3.576-3.305c-2.815,0.96-5.392,2.458-7.593,4.407
	c-1.567-0.601-3.327-1.68-4.573-2.803c0.737-2.847,0.903-5.821,0.479-8.766l-4.568-1.685c-2.233,1.964-4.04,4.334-5.329,6.977
	c-1.678,0.044-3.715-0.279-5.298-0.839c-0.408-2.913-1.394-5.724-2.911-8.283L43.14,1.33C41.828,4,41.065,6.88,40.887,9.815
	c-1.534,0.683-3.54,1.164-5.216,1.252c-1.492-2.534-3.478-4.754-5.859-6.538L25.39,6.568c-0.191,2.969,0.207,5.922,1.165,8.702
	c-1.155,1.217-2.825,2.43-4.339,3.152c-2.348-1.77-5.033-3.062-7.916-3.797l-3.305,3.576c0.96,2.815,2.458,5.391,4.407,7.593
	c-0.601,1.567-1.68,3.327-2.803,4.573c-2.847-0.738-5.821-0.903-8.766-0.479l-1.685,4.568c1.964,2.234,4.334,4.041,6.977,5.329
	c0.044,1.677-0.278,3.715-0.839,5.298c-2.913,0.408-5.724,1.394-8.283,2.911l0.192,4.866c2.67,1.312,5.55,2.073,8.485,2.253
	c0.683,1.533,1.164,3.54,1.252,5.216c-2.534,1.491-4.755,3.478-6.538,5.859l2.039,4.422c2.969,0.19,5.922-0.208,8.702-1.165
	c1.217,1.155,2.43,2.824,3.153,4.339c-1.771,2.348-3.063,5.033-3.798,7.916l3.576,3.305c2.816-0.96,5.392-2.458,7.593-4.407
	c1.41,0.613,3.031,1.526,4.332,2.439l0.241,0.364c-0.737,2.847-0.903,5.821-0.479,8.766l4.568,1.685
	c2.234-1.964,4.041-4.333,5.329-6.977c1.678-0.045,3.716,0.278,5.298,0.839c0.408,2.913,1.393,5.724,2.911,8.283l4.866-0.192
	c1.312-2.669,2.075-5.549,2.253-8.484c1.533-0.684,3.54-1.165,5.217-1.252c1.491,2.534,3.478,4.754,5.858,6.538l4.423-2.039
	c0.19-2.969-0.208-5.922-1.166-8.702c1.156-1.218,2.824-2.43,4.34-3.153c2.348,1.771,5.033,3.063,7.916,3.798l3.305-3.576
	c-0.96-2.815-2.458-5.392-4.407-7.593c0.602-1.566,1.68-3.326,2.803-4.573c2.848,0.737,5.821,0.903,8.767,0.479l1.685-4.568
	c-1.964-2.234-4.334-4.04-6.977-5.329C85.766,55.812,85.989,53.966,86.336,52.415z"/>
<path fill="none" stroke="#000000" stroke-width="0.1" stroke-linecap="round" stroke-linejoin="round" stroke-miterlimit="10" d="
	M62.183,53.099L62.183,53.099l13.891-0.546l2.122,2.473c-3.73,17.181-21.063,28.12-38.177,24.088l-1.318-2.98l6.472-12.301
	C51.466,61.579,57.44,57.81,62.183,53.099z"/>
<path fill="none" stroke="#000000" stroke-width="0.1" stroke-linecap="round" stroke-linejoin="round" stroke-miterlimit="10" d="
	M36.133,59.076L36.133,59.076l-6.472,12.302l-3.202,0.601C13.442,60.159,12.64,39.678,24.687,26.873l3.239,0.349l7.418,11.756
	C34.147,45.555,34.424,52.613,36.133,59.076z"/>
<path fill="none" stroke="#000000" stroke-width="0.1" stroke-linecap="round" stroke-linejoin="round" stroke-miterlimit="10" d="
	M43.982,33.528L43.982,33.528l-7.418-11.756l1.08-3.074c16.743-5.363,34.885,4.182,39.949,21.018l-1.921,2.631l-13.89,0.546
	C56.685,38.569,50.433,35.279,43.982,33.528z"/>
<circle fill="none" stroke="#000000" stroke-width="0.1" stroke-linecap="round" stroke-linejoin="round" stroke-miterlimit="10" cx="47.434" cy="48.568" r="5.67"/>
</svg>
