<?xml version="1.0" encoding="utf-8"?>
<!-- Generator: Adobe Illustrator 16.0.0, SVG Export Plug-In . SVG Version: 6.00 Build 0)  -->
<!DOCTYPE svg PUBLIC "-//W3C//DTD SVG 1.1//EN" "http://www.w3.org/Graphics/SVG/1.1/DTD/svg11.dtd">
<svg version="1.1" id="Layer_1" xmlns="http://www.w3.org/2000/svg" xmlns:xlink="http://www.w3.org/1999/xlink" x="0px" y="0px"
	 width="107px" height="107px" viewBox="0 0 107 107" enable-background="new 0 0 107 107" xml:space="preserve">
<path fill="none" stroke="#000000" stroke-width="0.1" stroke-linecap="round" stroke-linejoin="round" stroke-miterlimit="10" d="
	M97.192,58.044L97.192,58.044l0.237-0.345c2.889-0.466,5.701-1.466,8.27-2.945l-0.171-4.896c-2.665-1.295-5.54-2.096-8.454-2.36
	l-0.263-0.328l-0.962-4.526l0.106-0.406c2.555-1.426,4.855-3.327,6.763-5.595l-1.835-4.543c-2.948-0.306-5.924-0.075-8.752,0.674
	l-0.357-0.218l-2.452-3.925l-0.04-0.418c1.914-2.213,3.426-4.786,4.441-7.57l-3.277-3.641c-2.875,0.72-5.592,1.955-7.993,3.626
	l-0.411-0.083l-3.647-2.849l-0.18-0.379c1.041-2.734,1.581-5.669,1.584-8.633l-4.325-2.3c-2.455,1.66-4.586,3.75-6.271,6.141
	l-0.415,0.063l-4.401-1.43l-0.299-0.294c0.043-2.925-0.453-5.869-1.464-8.655l-4.851-0.682c-1.74,2.399-3.027,5.091-3.792,7.916
	l-0.369,0.201l-4.625,0.161l-0.381-0.174c-0.961-2.764-2.433-5.359-4.335-7.632l-4.792,1.018c-0.814,2.85-1.104,5.82-0.857,8.736
	l-0.277,0.314l-4.291,1.734l-0.418-0.034c-1.848-2.268-4.12-4.203-6.684-5.688l-4.155,2.596c0.21,2.956,0.954,5.846,2.183,8.501
	l-0.153,0.391l-3.439,3.096l-0.405,0.112c-2.512-1.5-5.308-2.542-8.226-3.06l-3.016,3.861c1.208,2.706,2.895,5.167,4.958,7.242
	l-0.01,0.419l-2.172,4.086l-0.342,0.243c-2.874-0.549-5.858-0.572-8.777-0.061l-1.514,4.659c2.062,2.13,4.489,3.865,7.137,5.11
	l0.133,0.397L8.51,50.254l-0.238,0.345c-2.888,0.466-5.701,1.465-8.269,2.944l0.171,4.896c2.665,1.296,5.54,2.097,8.454,2.36
	l0.262,0.327l0.962,4.527L9.747,66.06c-2.555,1.426-4.856,3.327-6.764,5.596l1.836,4.542c2.947,0.306,5.923,0.075,8.751-0.673
	l0.358,0.218l2.452,3.925l0.04,0.417c-1.913,2.214-3.425,4.787-4.442,7.571l3.278,3.641c2.875-0.721,5.592-1.955,7.994-3.626
	l0.411,0.082l3.647,2.85l0.179,0.379c-1.04,2.734-1.58,5.669-1.584,8.633l4.326,2.301c2.455-1.661,4.585-3.75,6.271-6.142
	l0.414-0.062l4.402,1.43l0.298,0.294c-0.042,2.926,0.454,5.868,1.464,8.654l4.851,0.682c1.739-2.398,3.027-5.091,3.793-7.914
	l0.368-0.201l4.625-0.162l0.381,0.175c0.961,2.763,2.434,5.358,4.336,7.632l4.792-1.019c0.813-2.85,1.104-5.82,0.856-8.735
	l0.277-0.314l4.291-1.733l0.418,0.033c1.848,2.269,4.119,4.204,6.684,5.688l4.155-2.596c-0.21-2.956-0.954-5.847-2.184-8.502
	l0.153-0.39l3.44-3.098l0.403-0.11c2.513,1.499,5.31,2.541,8.228,3.06l3.016-3.861c-1.208-2.706-2.896-5.167-4.959-7.241l0.01-0.42
	l2.173-4.087l0.343-0.241c2.873,0.549,5.857,0.571,8.776,0.061l1.515-4.66c-2.062-2.129-4.489-3.864-7.138-5.108l-0.134-0.397
	L97.192,58.044z"/>
<path fill="none" stroke="#000000" stroke-width="0.1" stroke-linecap="round" stroke-linejoin="round" stroke-miterlimit="10" d="
	M67.582,58.744L67.582,58.744l19.369-0.676l2.191,2.479C85.271,81.819,63.51,95.419,42.692,89.572l-1.267-3.057l9.099-17.112
	C56.66,67.427,63.114,63.392,67.582,58.744z"/>
<path fill="none" stroke="#000000" stroke-width="0.1" stroke-linecap="round" stroke-linejoin="round" stroke-miterlimit="10" d="
	M41.506,64.608L41.506,64.608L32.407,81.72l-3.242,0.659c-16.489-13.987-17.383-39.635-1.912-54.74l3.281,0.431l10.27,16.437
	C39.449,50.81,39.714,58.415,41.506,64.608z"/>
<path fill="none" stroke="#000000" stroke-width="0.1" stroke-linecap="round" stroke-linejoin="round" stroke-miterlimit="10" d="
	M49.466,39.094L49.466,39.094L39.195,22.658l1.051-3.137c20.359-7.287,43.015,4.764,48.362,25.714l-2.015,2.625l-19.369,0.677
	C62.444,44.212,55.725,40.638,49.466,39.094z"/>
<circle fill="none" stroke="#000000" stroke-width="0.1" stroke-linecap="round" stroke-linejoin="round" stroke-miterlimit="10" cx="52.851" cy="54.148" r="5.67"/>
</svg>
