<?xml version="1.0" encoding="utf-8"?>
<!-- Generator: Adobe Illustrator 16.0.0, SVG Export Plug-In . SVG Version: 6.00 Build 0)  -->
<!DOCTYPE svg PUBLIC "-//W3C//DTD SVG 1.1//EN" "http://www.w3.org/Graphics/SVG/1.1/DTD/svg11.dtd">
<svg version="1.1" id="Layer_1" xmlns="http://www.w3.org/2000/svg" xmlns:xlink="http://www.w3.org/1999/xlink" x="0px" y="0px"
	 width="123px" height="123px" viewBox="0 0 123 123" enable-background="new 0 0 123 123" xml:space="preserve">
<path fill="none" stroke="#000000" stroke-width="0.1" stroke-linecap="round" stroke-linejoin="round" stroke-miterlimit="10" d="
	M113.47,65.971L113.47,65.971l0.246-0.524c2.902-0.294,5.735-1.254,8.239-2.781l-0.148-4.933c-2.59-1.376-5.475-2.165-8.39-2.284
	c-0.64-1.755-1.017-3.831-1.034-5.698c2.688-1.136,5.11-2.889,7.052-5.087l-1.595-4.67c-2.88-0.551-5.869-0.455-8.689,0.291
	c-1.129-1.489-2.1-3.361-2.668-5.141c2.233-1.877,4.032-4.266,5.239-6.939l-2.9-3.993c-2.915,0.323-5.743,1.297-8.22,2.84
	c-1.517-1.091-2.996-2.593-4.063-4.126c1.58-2.452,2.596-5.265,2.962-8.175l-3.949-2.961c-2.689,1.168-5.105,2.932-7.017,5.136
	c-1.771-0.594-3.628-1.593-5.1-2.744c0.787-2.809,0.929-5.797,0.421-8.685l-4.646-1.665c-2.227,1.909-4.015,4.306-5.191,6.976
	c-1.868-0.047-3.936-0.455-5.682-1.119c-0.076-2.917-0.821-5.813-2.158-8.424l-4.93-0.221c-1.566,2.479-2.568,5.298-2.905,8.196
	c-1.798,0.506-3.895,0.727-5.76,0.605c-0.931-2.765-2.498-5.313-4.545-7.413l-4.776,1.241c-0.765,2.832-0.892,5.82-0.36,8.689
	c-1.569,1.014-3.508,1.843-5.325,2.276c-1.705-2.367-3.953-4.341-6.528-5.744l-4.198,2.594c0.103,2.931,0.862,5.824,2.217,8.408
	c-1.201,1.431-2.809,2.795-4.418,3.745c-2.327-1.759-5.057-2.982-7.931-3.565l-3.247,3.717c0.962,2.771,2.541,5.311,4.597,7.381
	c-0.726,1.722-1.861,3.499-3.118,4.88c-2.743-0.995-5.712-1.359-8.63-1.068l-2.007,4.508c1.737,2.363,3.994,4.325,6.568,5.698
	c-0.185,1.859-0.746,3.892-1.54,5.583c-2.914-0.143-5.858,0.384-8.562,1.522l-0.589,4.9c2.356,1.747,5.091,2.957,7.956,3.509
	c0.371,1.831,0.434,3.939,0.174,5.789c-2.826,0.723-5.484,2.094-7.732,3.978l0.881,4.856c2.766,0.975,5.736,1.324,8.637,1.008
	c0.893,1.641,1.575,3.636,1.872,5.48c-2.488,1.523-4.624,3.618-6.216,6.081l2.273,4.381c2.931,0.115,5.872-0.427,8.55-1.583
	c1.337,1.304,2.577,3.01,3.404,4.685c-1.928,2.189-3.352,4.82-4.147,7.644l3.463,3.516c2.834-0.753,5.486-2.138,7.704-4.033
	c1.663,0.853,3.35,2.117,4.634,3.475c-1.197,2.66-1.782,5.594-1.71,8.525l4.346,2.338c2.486-1.556,4.612-3.659,6.173-6.124
	c1.839,0.325,3.824,1.036,5.452,1.953c-0.36,2.896-0.055,5.871,0.878,8.652l4.842,0.953c1.917-2.219,3.329-4.856,4.094-7.672
	c1.854-0.232,3.959-0.138,5.785,0.26c0.51,2.873,1.679,5.626,3.39,8.008l4.908-0.516c1.179-2.686,1.75-5.621,1.65-8.537
	c1.702-0.769,3.743-1.3,5.604-1.457c1.335,2.595,3.264,4.881,5.601,6.652l4.538-1.939c0.334-2.914,0.014-5.888-0.94-8.646
	c1.402-1.234,3.194-2.342,4.927-3.044c2.039,2.087,4.556,3.703,7.312,4.707l3.765-3.19c-0.538-2.883-1.721-5.632-3.446-7.984
	c0.976-1.595,2.362-3.182,3.812-4.361c2.563,1.393,5.445,2.196,8.374,2.344l2.657-4.159c-1.365-2.596-3.306-4.873-5.646-6.614
	c0.461-1.811,1.318-3.736,2.355-5.29c2.86,0.574,5.85,0.492,8.692-0.229l1.313-4.758c-2.069-2.078-4.595-3.682-7.345-4.655
	C113.003,69.513,113.162,67.658,113.47,65.971z"/>
<path fill="none" stroke="#000000" stroke-width="0.1" stroke-linecap="round" stroke-linejoin="round" stroke-miterlimit="10" d="
	M75.686,66.69L75.686,66.69l27.562-0.825l2.262,2.486c-4.048,27.439-32.437,44.979-58.788,36.329l-1.212-3.136l13.066-24.282
	C64.722,75.316,71.195,71.316,75.686,66.69z"/>
<path fill="none" stroke="#000000" stroke-width="0.1" stroke-linecap="round" stroke-linejoin="round" stroke-miterlimit="10" d="
	M49.582,72.423L49.582,72.423L36.516,96.705l-3.285,0.716c-21.735-17.23-22.738-50.578-2.068-69.077l3.322,0.518L48.98,52.319
	C47.593,58.614,47.82,66.222,49.582,72.423z"/>
<path fill="none" stroke="#000000" stroke-width="0.1" stroke-linecap="round" stroke-linejoin="round" stroke-miterlimit="10" d="
	M57.669,46.95L57.669,46.95L43.174,23.493l1.022-3.203c25.791-10.206,55.169,5.597,60.856,32.748l-2.109,2.618l-27.562,0.825
	C70.622,52.132,63.921,48.525,57.669,46.95z"/>
<circle fill="none" stroke="#000000" stroke-width="0.1" stroke-linecap="round" stroke-linejoin="round" stroke-miterlimit="10" cx="60.979" cy="62.021" r="5.669"/>
</svg>
