<?xml version="1.0" encoding="utf-8"?>
<!-- Generator: Adobe Illustrator 16.0.0, SVG Export Plug-In . SVG Version: 6.00 Build 0)  -->
<!DOCTYPE svg PUBLIC "-//W3C//DTD SVG 1.1//EN" "http://www.w3.org/Graphics/SVG/1.1/DTD/svg11.dtd">
<svg version="1.1" id="Layer_1" xmlns="http://www.w3.org/2000/svg" xmlns:xlink="http://www.w3.org/1999/xlink" x="0px" y="0px"
	 width="140px" height="140px" viewBox="0 0 140 140" enable-background="new 0 0 140 140" xml:space="preserve">
<path fill="none" stroke="#000000" stroke-width="0.1" stroke-linecap="round" stroke-linejoin="round" stroke-miterlimit="10" d="
	M129.77,74.456L129.77,74.456c2.965-0.389,5.85-1.379,8.441-2.89l-0.13-4.962c-2.667-1.374-5.601-2.211-8.581-2.443l-0.875-5.528
	c2.763-1.141,5.294-2.844,7.405-4.975l-1.41-4.759c-2.932-0.637-5.98-0.688-8.92-0.14l-2.276-5.112
	c2.374-1.818,4.377-4.118,5.865-6.723l-2.593-4.232c-2.997,0.143-5.956,0.884-8.653,2.174l-3.521-4.349
	c1.822-2.371,3.162-5.111,3.925-8.012l-3.601-3.416c-2.857,0.914-5.523,2.395-7.795,4.339l-4.526-3.289
	c1.146-2.762,1.73-5.755,1.718-8.755L99.88,9.016c-2.523,1.622-4.716,3.743-6.407,6.209l-5.224-2.006
	c0.393-2.964,0.183-6.007-0.607-8.901L82.816,3.16c-2.018,2.219-3.587,4.835-4.581,7.655l-5.566-0.585
	c-0.387-2.964-1.377-5.85-2.889-8.441l-4.962,0.13c-1.374,2.667-2.211,5.6-2.444,8.581l-5.527,0.875
	c-1.142-2.763-2.844-5.293-4.975-7.405l-4.759,1.41c-0.637,2.931-0.688,5.981-0.14,8.92l-5.112,2.276
	c-1.818-2.374-4.118-4.377-6.723-5.865l-4.232,2.593c0.144,2.997,0.884,5.956,2.174,8.653l-4.349,3.522
	c-2.37-1.822-5.11-3.162-8.012-3.925l-3.416,3.6c0.913,2.857,2.395,5.524,4.339,7.795l-3.289,4.527
	c-2.762-1.146-5.755-1.731-8.755-1.718L7.23,40.12c1.621,2.524,3.743,4.716,6.209,6.407l-2.006,5.224
	c-2.964-0.393-6.007-0.183-8.901,0.607l-1.159,4.826c2.22,2.017,4.836,3.585,7.656,4.581l-0.585,5.566
	c-2.964,0.387-5.85,1.377-8.441,2.889l0.13,4.961c2.667,1.374,5.6,2.212,8.581,2.444l0.875,5.527
	c-2.763,1.141-5.294,2.844-7.405,4.975l1.409,4.759c2.932,0.638,5.981,0.688,8.921,0.141l2.276,5.111
	c-2.374,1.818-4.377,4.118-5.865,6.724l2.593,4.231c2.997-0.143,5.956-0.884,8.653-2.174l3.522,4.349
	c-1.822,2.371-3.162,5.111-3.926,8.013l3.601,3.416c2.857-0.914,5.523-2.396,7.795-4.339l4.527,3.289
	c-1.146,2.762-1.731,5.755-1.718,8.755l4.362,2.367c2.524-1.621,4.717-3.742,6.407-6.209l5.224,2.007
	c-0.393,2.964-0.183,6.007,0.606,8.9l4.827,1.159c2.018-2.22,3.586-4.837,4.581-7.656l5.565,0.585
	c0.388,2.965,1.378,5.85,2.89,8.441l4.962-0.13c1.373-2.667,2.211-5.601,2.442-8.581l5.528-0.875
	c1.141,2.763,2.844,5.294,4.975,7.405l4.759-1.409c0.638-2.932,0.688-5.981,0.141-8.921l5.111-2.276
	c1.818,2.374,4.118,4.377,6.724,5.865l4.231-2.593c-0.143-2.997-0.884-5.956-2.174-8.653l4.35-3.522
	c2.37,1.822,5.11,3.163,8.012,3.927l3.416-3.602c-0.914-2.856-2.396-5.523-4.339-7.795l3.289-4.527
	c2.762,1.146,5.755,1.731,8.755,1.719l2.368-4.362c-1.622-2.523-3.743-4.716-6.209-6.407l2.006-5.224
	c2.964,0.393,6.007,0.183,8.9-0.606l1.158-4.827c-2.22-2.018-4.836-3.586-7.655-4.58L129.77,74.456z"/>
<path fill="none" stroke="#000000" stroke-width="0.1" stroke-linecap="round" stroke-linejoin="round" stroke-miterlimit="10" d="
	M83.797,75.617L83.797,75.617l35.734-0.937l2.31,2.494c-4.2,33.613-39.223,55.066-71.077,43.558l-1.174-3.191l17.057-31.415
	C72.8,84.203,79.29,80.227,83.797,75.617z"/>
<path fill="none" stroke="#000000" stroke-width="0.1" stroke-linecap="round" stroke-linejoin="round" stroke-miterlimit="10" d="
	M57.671,81.253L57.671,81.253l-17.057,31.414l-3.315,0.754c-27.004-20.447-28.08-61.5-2.182-83.333l3.35,0.579l18.677,30.479
	C55.734,67.437,55.933,75.045,57.671,81.253z"/>
<path fill="none" stroke="#000000" stroke-width="0.1" stroke-linecap="round" stroke-linejoin="round" stroke-miterlimit="10" d="
	M65.853,55.809L65.853,55.809L47.176,25.331l1.004-3.248c31.213-13.163,67.297,6.432,73.26,39.777l-2.178,2.611l-35.733,0.936
	C78.787,61.04,72.099,57.408,65.853,55.809z"/>
<circle fill="none" stroke="#000000" stroke-width="0.1" stroke-linecap="round" stroke-linejoin="round" stroke-miterlimit="10" cx="69.106" cy="70.893" r="5.668"/>
</svg>
