<?xml version="1.0" encoding="utf-8"?>
<!-- Generator: Adobe Illustrator 16.0.0, SVG Export Plug-In . SVG Version: 6.00 Build 0)  -->
<!DOCTYPE svg PUBLIC "-//W3C//DTD SVG 1.1//EN" "http://www.w3.org/Graphics/SVG/1.1/DTD/svg11.dtd">
<svg version="1.1" id="Layer_1" xmlns="http://www.w3.org/2000/svg" xmlns:xlink="http://www.w3.org/1999/xlink" x="0px" y="0px"
	 width="156px" height="156px" viewBox="0 0 156 156" enable-background="new 0 0 156 156" xml:space="preserve">
<path fill="none" stroke="#000000" stroke-width="0.1" stroke-linecap="round" stroke-linejoin="round" stroke-miterlimit="10" d="
	M146.033,82.422L146.033,82.422c2.952-0.487,5.817-1.494,8.433-2.96l-0.116-4.986c-2.681-1.342-5.59-2.215-8.562-2.565l-0.766-5.453
	c2.76-1.156,5.315-2.797,7.522-4.826l-1.262-4.824c-2.918-0.688-5.951-0.867-8.923-0.521l-2.004-5.13
	c2.419-1.761,4.527-3.948,6.208-6.431l-2.342-4.403c-2.998,0.003-5.99,0.529-8.803,1.551l-3.132-4.53
	c1.948-2.271,3.496-4.885,4.557-7.689l-3.293-3.744c-2.917,0.695-5.707,1.896-8.208,3.539l-4.093-3.686
	c1.372-2.659,2.275-5.559,2.662-8.532l-4.068-2.884c-2.678,1.348-5.115,3.161-7.17,5.336l-4.833-2.642
	c0.723-2.903,0.933-5.934,0.622-8.916l-4.623-1.868c-2.295,1.93-4.249,4.256-5.747,6.846l-5.311-1.457
	c0.032-2.992-0.463-5.988-1.451-8.819l-4.93-0.752c-1.787,2.408-3.152,5.121-4.014,7.987l-5.504-0.192
	c-0.657-2.919-1.83-5.722-3.446-8.247l-4.97,0.405c-1.184,2.754-1.887,5.71-2.062,8.697l-5.401,1.083
	c-1.312-2.689-3.099-5.146-5.254-7.231l-4.743,1.541c-0.517,2.953-0.519,5.991-0.001,8.938l-5.005,2.299
	c-1.898-2.313-4.204-4.291-6.781-5.824l-4.259,2.593c0.177,2.993,0.876,5.95,2.06,8.698l-4.34,3.391
	c-2.38-1.813-5.08-3.206-7.941-4.103l-3.547,3.505c0.864,2.871,2.226,5.587,4.01,7.989l-3.441,4.3
	c-2.734-1.215-5.683-1.948-8.673-2.161l-2.642,4.229c1.502,2.595,3.453,4.923,5.744,6.848l-2.357,4.978
	c-2.94-0.552-5.978-0.585-8.937-0.103L3.303,56.42c2.06,2.179,4.495,3.994,7.168,5.339l-1.145,5.387
	c-2.989,0.141-5.952,0.81-8.72,1.962l-0.463,4.964c2.506,1.646,5.295,2.851,8.206,3.542l0.128,5.506
	c-2.875,0.826-5.605,2.16-8.032,3.92l0.693,4.938C3.957,93,6.949,93.529,9.941,93.531l1.394,5.328
	c-2.608,1.467-4.956,3.395-6.912,5.667l1.814,4.644c2.979,0.345,6.011,0.171,8.923-0.518l2.585,4.862
	c-2.198,2.03-4.039,4.446-5.419,7.108l2.836,4.101c2.978-0.351,5.889-1.22,8.563-2.562l3.638,4.136
	c-1.671,2.481-2.905,5.258-3.634,8.166l3.705,3.336c2.816-1.028,5.448-2.546,7.742-4.467l4.493,3.185
	c-1.054,2.801-1.615,5.786-1.653,8.784l4.375,2.393c2.503-1.651,4.714-3.734,6.503-6.134L54,143.624
	c-0.379,2.968-0.236,6.002,0.417,8.929l4.809,1.318c2.056-2.183,3.727-4.72,4.913-7.467l5.445,0.83
	c0.315,2.976,1.154,5.896,2.465,8.592L77.032,156c1.497-2.599,2.538-5.453,3.059-8.399l5.489-0.447
	c0.993,2.822,2.482,5.47,4.38,7.791l4.889-0.979c0.857-2.873,1.212-5.891,1.04-8.878l5.238-1.702
	c1.616,2.518,3.677,4.75,6.058,6.571l4.532-2.081c0.171-2.993-0.18-6.011-1.036-8.878l4.704-2.864
	c2.153,2.077,4.673,3.774,7.411,4.997l3.929-3.07c-0.523-2.952-1.561-5.807-3.055-8.398l3.917-3.872
	c2.575,1.523,5.418,2.595,8.363,3.153l3.116-3.894c-1.191-2.752-2.859-5.29-4.911-7.469l2.919-4.67
	c2.857,0.889,5.87,1.274,8.865,1.139l2.134-4.507c-1.794-2.402-4.003-4.488-6.501-6.135l1.763-5.218
	c2.984,0.206,6.006-0.113,8.889-0.936l1.037-4.878c-2.299-1.924-4.929-3.444-7.739-4.47L146.033,82.422z"/>
<path fill="none" stroke="#000000" stroke-width="0.1" stroke-linecap="round" stroke-linejoin="round" stroke-miterlimit="10" d="
	M92.701,83.514L92.701,83.514l43.104-1.004l2.345,2.5c-4.308,39.773-46.03,65.167-83.338,50.737l-1.144-3.231l20.684-37.831
	C81.314,92.565,87.622,88.726,92.701,83.514z"/>
<path fill="none" stroke="#000000" stroke-width="0.1" stroke-linecap="round" stroke-linejoin="round" stroke-miterlimit="10" d="
	M65.39,89.785L65.39,89.785l-20.684,37.832l-3.337,0.78c-32.285-23.623-33.428-72.444-2.27-97.542l3.369,0.625L64.89,68.309
	C63.244,75.398,63.416,82.78,65.39,89.785z"/>
<path fill="none" stroke="#000000" stroke-width="0.1" stroke-linecap="round" stroke-linejoin="round" stroke-miterlimit="10" d="
	M73.614,62.997L73.614,62.997L51.193,26.169l0.992-3.281c36.594-16.151,79.458,7.275,85.609,46.805l-2.226,2.606l-43.105,1.003
	C87.146,68.332,80.667,64.791,73.614,62.997z"/>
<circle fill="none" stroke="#000000" stroke-width="0.1" stroke-linecap="round" stroke-linejoin="round" stroke-miterlimit="10" cx="77.235" cy="78.765" r="5.668"/>
</svg>
