<?xml version="1.0" encoding="utf-8"?>
<!-- Generator: Adobe Illustrator 16.0.0, SVG Export Plug-In . SVG Version: 6.00 Build 0)  -->
<!DOCTYPE svg PUBLIC "-//W3C//DTD SVG 1.1//EN" "http://www.w3.org/Graphics/SVG/1.1/DTD/svg11.dtd">
<svg version="1.1" id="Layer_1" xmlns="http://www.w3.org/2000/svg" xmlns:xlink="http://www.w3.org/1999/xlink" x="0px" y="0px"
	 width="172px" height="172px" viewBox="0 0 172 172" enable-background="new 0 0 172 172" xml:space="preserve">
<path fill="none" stroke="#000000" stroke-width="0.1" stroke-linecap="round" stroke-linejoin="round" stroke-miterlimit="10" d="
	M162.296,90.365L162.296,90.365c2.939-0.562,5.792-1.583,8.426-3.013l-0.104-5.004c-2.692-1.319-5.585-2.219-8.546-2.656
	l-0.684-5.404c2.76-1.16,5.338-2.751,7.617-4.698l-1.143-4.874c-2.907-0.729-5.924-1.008-8.911-0.821l-1.792-5.144
	c2.458-1.708,4.648-3.801,6.474-6.179l-2.132-4.529c-2.995-0.11-6.004,0.244-8.887,1.049l-2.821-4.659
	c2.049-2.183,3.756-4.685,5.047-7.39l-3.026-3.987c-2.953,0.515-5.823,1.487-8.476,2.874l-3.728-3.971
	c1.55-2.561,2.699-5.363,3.399-8.278l-3.789-3.27c-2.781,1.117-5.386,2.665-7.691,4.573l-4.474-3.109
	c0.984-2.827,1.527-5.808,1.605-8.804l-4.386-2.411c-2.488,1.671-4.715,3.726-6.574,6.072l-5.021-2.11
	c0.375-2.97,0.286-5.999-0.26-8.946l-4.792-1.446c-2.086,2.152-3.837,4.625-5.167,7.306l-5.351-1.021
	c-0.251-2.982-0.968-5.926-2.114-8.695l-4.988-0.419c-1.593,2.54-2.791,5.322-3.536,8.221l-5.445,0.114
	c-0.866-2.865-2.179-5.595-3.876-8.066l-4.967,0.628c-1.03,2.815-1.622,5.786-1.748,8.776l-5.303,1.244
	c-1.442-2.623-3.294-5.021-5.469-7.084l-4.727,1.647c-0.422,2.968-0.384,5.997,0.115,8.948l-4.929,2.319
	c-1.956-2.266-4.266-4.226-6.822-5.792l-4.281,2.593c0.204,2.991,0.87,5.946,1.972,8.729l-4.339,3.293
	c-2.384-1.81-5.051-3.247-7.877-4.247l-3.648,3.427c0.821,2.883,2.087,5.635,3.744,8.128l-3.559,4.123
	c-2.709-1.274-5.616-2.125-8.588-2.517l-2.857,4.111c1.402,2.649,3.213,5.078,5.352,7.172l-2.624,4.773
	c-2.914-0.683-5.935-0.911-8.923-0.676l-1.94,4.614c1.922,2.3,4.199,4.299,6.726,5.903l-1.574,5.214
	c-2.993-0.062-5.995,0.343-8.869,1.194l-0.938,4.917c2.358,1.85,5.001,3.332,7.807,4.375L8.43,82.91
	c-2.94,0.561-5.793,1.582-8.427,3.012l0.105,5.004c2.691,1.319,5.584,2.22,8.545,2.657l0.683,5.404
	c-2.759,1.159-5.337,2.751-7.616,4.697l1.143,4.873c2.907,0.731,5.924,1.011,8.911,0.822l1.791,5.145
	c-2.458,1.708-4.649,3.801-6.473,6.179l2.131,4.529c2.996,0.109,6.004-0.245,8.887-1.05l2.822,4.659
	c-2.049,2.182-3.757,4.685-5.047,7.391l3.026,3.986c2.953-0.515,5.823-1.487,8.475-2.874l3.729,3.972
	c-1.551,2.56-2.702,5.362-3.401,8.276l3.79,3.271c2.781-1.118,5.385-2.666,7.692-4.573l4.472,3.109
	c-0.984,2.826-1.526,5.807-1.605,8.803l4.387,2.412c2.487-1.673,4.713-3.728,6.573-6.073l5.021,2.111
	c-0.375,2.97-0.285,5.997,0.261,8.944l4.792,1.447c2.085-2.153,3.835-4.625,5.167-7.306l5.35,1.02
	c0.251,2.983,0.968,5.927,2.115,8.696l4.988,0.418c1.593-2.539,2.791-5.321,3.535-8.221l5.446-0.114
	c0.864,2.865,2.178,5.596,3.876,8.065l4.966-0.627c1.03-2.815,1.623-5.785,1.749-8.776l5.302-1.243
	c1.443,2.622,3.295,5.02,5.469,7.083l4.728-1.646c0.423-2.967,0.385-5.996-0.114-8.947l4.928-2.319
	c1.957,2.266,4.267,4.226,6.822,5.792l4.282-2.593c-0.204-2.99-0.871-5.946-1.973-8.729l4.339-3.293
	c2.385,1.81,5.052,3.246,7.877,4.247l3.648-3.427c-0.82-2.883-2.088-5.635-3.744-8.128l3.56-4.123
	c2.709,1.274,5.616,2.125,8.588,2.516l2.856-4.109c-1.402-2.649-3.214-5.078-5.353-7.172l2.624-4.773
	c2.914,0.683,5.936,0.911,8.924,0.676l1.939-4.615c-1.923-2.299-4.199-4.298-6.727-5.901l1.574-5.215
	c2.993,0.063,5.995-0.342,8.869-1.194l0.938-4.917c-2.359-1.849-5.001-3.331-7.807-4.375L162.296,90.365z"/>
<path fill="none" stroke="#000000" stroke-width="0.1" stroke-linecap="round" stroke-linejoin="round" stroke-miterlimit="10" d="
	M102.555,91.4L102.555,91.4l49.491-1.037l2.376,2.512c-4.271,45.828-52.933,75.3-95.526,57.853l-1.125-3.27l23.847-43.378
	C90.405,101.441,96.146,97.967,102.555,91.4z"/>
<path fill="none" stroke="#000000" stroke-width="0.1" stroke-linecap="round" stroke-linejoin="round" stroke-miterlimit="10" d="
	M72.642,99.145L72.642,99.145l-23.848,43.379l-3.363,0.803C7.878,116.714,6.686,59.833,43.092,31.671l3.394,0.661l25.643,42.341
	C70.02,83.602,70.161,90.312,72.642,99.145z"/>
<path fill="none" stroke="#000000" stroke-width="0.1" stroke-linecap="round" stroke-linejoin="round" stroke-miterlimit="10" d="
	M80.891,69.367L80.891,69.367L55.248,27.025l0.987-3.314c41.823-19.207,91.683,8.187,97.865,53.802l-2.269,2.609l-49.49,1.037
	C95.663,74.868,89.781,71.635,80.891,69.367z"/>
<circle fill="none" stroke="#000000" stroke-width="0.1" stroke-linecap="round" stroke-linejoin="round" stroke-miterlimit="10" cx="85.362" cy="86.637" r="5.668"/>
</svg>
