<?xml version="1.0" encoding="utf-8"?>
<!-- Generator: Adobe Illustrator 16.0.0, SVG Export Plug-In . SVG Version: 6.00 Build 0)  -->
<!DOCTYPE svg PUBLIC "-//W3C//DTD SVG 1.1//EN" "http://www.w3.org/Graphics/SVG/1.1/DTD/svg11.dtd">
<svg version="1.1" id="Layer_1" xmlns="http://www.w3.org/2000/svg" xmlns:xlink="http://www.w3.org/1999/xlink" x="0px" y="0px"
	 width="183px" height="183px" viewBox="0 0 183 183" enable-background="new 0 0 183 183" xml:space="preserve">
<path fill="none" stroke="#000000" stroke-width="0.1" stroke-linecap="round" stroke-linejoin="round" stroke-miterlimit="10" d="
	M173.137,95.984L173.137,95.984c2.933-0.603,5.777-1.63,8.423-3.04l-0.099-5.016c-2.698-1.305-5.581-2.22-8.535-2.706l-0.637-5.378
	c2.759-1.163,5.349-2.726,7.668-4.624l-1.075-4.9c-2.901-0.753-5.907-1.088-8.899-0.989l-1.674-5.151
	c2.479-1.678,4.715-3.716,6.618-6.031l-2.01-4.596c-2.992-0.173-6.006,0.085-8.921,0.766l-2.646-4.725
	c2.104-2.13,3.898-4.565,5.314-7.206l-2.868-4.116c-2.969,0.415-5.874,1.256-8.601,2.492l-3.518-4.118
	c1.648-2.5,2.934-5.238,3.808-8.105l-3.616-3.477c-2.831,0.985-5.517,2.377-7.95,4.122l-4.252-3.353
	c1.128-2.773,1.854-5.709,2.152-8.691l-4.226-2.705c-2.585,1.519-4.947,3.408-6.993,5.594l-4.824-2.459
	c0.565-2.94,0.706-5.962,0.416-8.945L121.52,6.8c-2.237,1.994-4.186,4.308-5.767,6.85l-5.212-1.47
	c-0.019-2.994-0.471-5.985-1.338-8.854l-4.938-0.882c-1.806,2.393-3.265,5.042-4.319,7.844l-5.398-0.425
	c-0.603-2.933-1.63-5.778-3.04-8.423l-5.015,0.099c-1.305,2.698-2.22,5.581-2.707,8.535l-5.377,0.637
	c-1.164-2.759-2.727-5.348-4.625-7.668l-4.9,1.075c-0.752,2.901-1.087,5.908-0.989,8.9l-5.15,1.673
	c-1.679-2.479-3.716-4.714-6.031-6.618l-4.596,2.01c-0.173,2.992,0.084,6.006,0.766,8.921l-4.725,2.646
	c-2.131-2.103-4.565-3.897-7.207-5.314l-4.115,2.868c0.414,2.969,1.255,5.875,2.492,8.601l-4.118,3.517
	c-2.5-1.648-5.238-2.933-8.105-3.807l-3.477,3.616c0.985,2.831,2.377,5.517,4.122,7.95l-3.353,4.252
	c-2.773-1.128-5.709-1.854-8.692-2.152l-2.704,4.225c1.518,2.584,3.407,4.947,5.593,6.993l-2.458,4.825
	c-2.94-0.566-5.962-0.707-8.945-0.416L5.362,61.48c1.994,2.238,4.308,4.187,6.851,5.767l-1.47,5.212
	c-2.994,0.018-5.985,0.471-8.854,1.338l-0.882,4.938C3.399,80.541,6.048,82,8.85,83.055l-0.424,5.398
	c-2.933,0.602-5.778,1.629-8.423,3.04l0.098,5.015c2.699,1.305,5.582,2.22,8.536,2.707l0.636,5.377
	c-2.758,1.164-5.348,2.727-7.667,4.625l1.075,4.9c2.901,0.753,5.907,1.087,8.899,0.989l1.674,5.149
	c-2.479,1.679-4.714,3.717-6.619,6.031l2.011,4.596c2.992,0.174,6.006-0.085,8.921-0.766l2.646,4.725
	c-2.104,2.131-3.898,4.565-5.315,7.207l2.869,4.115c2.968-0.413,5.874-1.255,8.6-2.492l3.517,4.118
	c-1.647,2.5-2.932,5.237-3.806,8.104l3.616,3.478c2.831-0.984,5.517-2.377,7.949-4.122l4.253,3.353
	c-1.129,2.773-1.855,5.71-2.152,8.692l4.225,2.704c2.584-1.519,4.946-3.407,6.992-5.593l4.825,2.458
	c-0.566,2.939-0.706,5.961-0.415,8.944l4.672,1.829c2.238-1.994,4.186-4.308,5.766-6.851l5.212,1.47
	c0.019,2.994,0.471,5.985,1.338,8.854l4.939,0.882c1.806-2.392,3.265-5.041,4.319-7.843l5.399,0.424
	c0.602,2.933,1.629,5.778,3.039,8.423l5.016-0.098c1.304-2.699,2.219-5.582,2.706-8.536l5.378-0.637
	c1.162,2.759,2.725,5.349,4.624,7.667l4.899-1.074c0.754-2.901,1.089-5.907,0.989-8.899l5.151-1.674
	c1.678,2.479,3.716,4.715,6.03,6.619l4.597-2.012c0.173-2.992-0.085-6.006-0.767-8.921l4.726-2.646
	c2.13,2.104,4.564,3.898,7.206,5.314l4.115-2.868c-0.414-2.969-1.255-5.874-2.491-8.601l4.117-3.517
	c2.5,1.647,5.238,2.933,8.105,3.806l3.477-3.616c-0.984-2.83-2.376-5.516-4.121-7.948l3.353-4.254
	c2.772,1.129,5.709,1.855,8.691,2.152l2.704-4.225c-1.518-2.585-3.407-4.947-5.594-6.992l2.459-4.825
	c2.94,0.565,5.962,0.705,8.945,0.415l1.828-4.672c-1.993-2.238-4.308-4.187-6.851-5.766l1.471-5.213
	c2.994-0.019,5.984-0.471,8.854-1.338l0.882-4.938c-2.392-1.807-5.041-3.266-7.844-4.319L173.137,95.984z"/>
<path fill="none" stroke="#000000" stroke-width="0.1" stroke-linecap="round" stroke-linejoin="round" stroke-miterlimit="10" d="
	M109.171,97.306L109.171,97.306l53.051-1.042l2.526,2.675c-4.845,49.246-56.625,80.504-102.46,61.868l-1.191-3.479l25.624-46.465
	C96.317,107.739,101.939,104.345,109.171,97.306z"/>
<path fill="none" stroke="#000000" stroke-width="0.1" stroke-linecap="round" stroke-linejoin="round" stroke-miterlimit="10" d="
	M77.181,105.601L77.181,105.601l-25.623,46.466l-3.579,0.85c-40.228-28.82-41.405-89.289-2.35-119.668l3.609,0.709l27.428,45.424
	C74.571,89.254,74.702,95.817,77.181,105.601z"/>
<path fill="none" stroke="#000000" stroke-width="0.1" stroke-linecap="round" stroke-linejoin="round" stroke-miterlimit="10" d="
	M85.992,73.75L85.992,73.75L58.564,28.326l1.053-3.524c45.069-20.417,98.037,8.778,104.81,57.799l-2.418,2.771l-53.052,1.042
	C101.454,79.664,95.706,76.492,85.992,73.75z"/>
<circle fill="none" stroke="#000000" stroke-width="0.1" stroke-linecap="round" stroke-linejoin="round" stroke-miterlimit="10" cx="90.779" cy="92.218" r="5.668"/>
</svg>
